<svg width="310" height="75" viewBox="0 0 310 75" fill="none" xmlns="http://www.w3.org/2000/svg">
<path d="M303.356 74.2067H6.64409C2.97216 74.2067 0 73.2781 0 72.1308V13.2746C0 12.1273 2.97216 11.1986 6.64409 11.1986H303.356C307.028 11.1986 310 12.1273 310 13.2746V72.1284C310 73.2781 307.028 74.2067 303.356 74.2067Z" fill="#CDD7F1"/>
<path d="M306.367 11.1986H258.753C259.518 14.534 262.777 19.0626 273.45 22.7906C288.003 27.8725 301.635 30.8834 310 37.242V13.9281C310 12.4227 308.375 11.1986 306.367 11.1986Z" fill="#0E3498"/>
<path d="M13.8974 64.7478C7.13944 63.505 2.79502 61.7018 0 59.9249V72.0923C0 73.2609 1.33337 74.2068 2.98068 74.2068H33.6043C29.8776 70.7034 23.6159 66.5342 13.8974 64.7478Z" fill="#0E3498"/>
<path d="M164.267 0H145.695C142.712 0 140.298 2.41415 140.298 5.39654V13.6377C140.298 16.6167 142.712 19.0343 145.695 19.0343H160.204V22.1269C160.204 22.5883 160.576 22.9603 161.037 22.9603C161.313 22.9603 161.567 22.826 161.722 22.6021C162.156 21.9684 163.041 20.5668 163.537 19.0343H164.267C167.246 19.0343 169.664 16.6201 169.664 13.6377V5.39654C169.664 2.41415 167.246 0 164.267 0Z" fill="#FEC300"/>
<path d="M151.36 7.47656C151.587 6.64659 152.111 6.00948 152.482 5.64098C152.699 5.42746 152.71 5.08308 152.507 4.85923L152.445 4.79035C152.276 4.60438 151.997 4.54928 151.773 4.66637C147.32 7.00475 147.375 10.1731 147.42 10.7104C147.417 10.7689 147.41 10.8274 147.41 10.8894C147.41 12.7973 148.956 14.3436 150.864 14.3436C152.772 14.3436 154.318 12.7973 154.318 10.8894C154.318 9.15373 153.034 7.71764 151.36 7.47656Z" fill="#161722"/>
<path d="M159.591 7.4765C159.818 6.64653 160.342 6.00942 160.713 5.64092C160.93 5.4274 160.941 5.08302 160.738 4.85916L160.676 4.79029C160.507 4.60432 160.228 4.54922 160.004 4.66631C155.551 7.00469 155.606 10.1731 155.651 10.7103C155.648 10.7688 155.641 10.8274 155.641 10.8894C155.641 12.7973 157.187 14.3436 159.095 14.3436C161.003 14.3436 162.549 12.7973 162.549 10.8894C162.549 9.15367 161.261 7.71757 159.591 7.4765Z" fill="#161722"/>
</svg>
